<svg viewBox="182.44 472.22 715.08 135.55" role="presentation" aria-hidden="true">
            <path class="ltr" style="--i:0" d="M316.74,547.83h-35.74l-27.44-75.6h-30.88l6.11,22.11-15.85,43.8-3.51,9.69-12.86,35.53-12.39,22.32h25.35l.19-22.32,8.39-23.06h1.49c17.26,0,34.49-.24,51.73-.08,4.98.03,10.06.06,15.16.24,10.9.38,21.86,1.54,31.96,5.31.19.06.36.14.56.22l-2.27-18.16ZM251.09,547.83s.05.05.08.08h-28.49l.03-.08,19.04-52.73,19,52.65.03.08h-9.69ZM293.98,583.57l-4.95-13.66h-20.16l4.84,13.59.19,22.18h32.47l-12.39-22.32v.21Z"/>
            <path class="ltr" style="--i:1" d="M408.71,490.53c9.91-4,26.69-5.91,42.13-5.91h20.4v79.69c0,16.96-7.63,31.07-28.21,31.07-19.25,0-36.79-10.87-43.85-26.5v27.26c10.29,7.43,27.64,11.63,43.85,11.63,34.31,0,47.28-20.21,47.28-36.41v-77.01l5.91-22.11h-85.21l-2.29,18.3Z"/>
            <polygon class="ltr" style="--i:2" points="659.41 472.23 628.15 472.23 634.25 494.35 634.25 583.37 628.15 605.67 659.41 605.67 653.31 583.37 653.31 494.35 659.41 472.23"/>
            <path class="ltr" style="--i:3" d="M831.2,472.23h-47.28l6.1,22.11v89.02l-6.1,22.3h47.28c43.08,0,64.62-26.69,64.62-66.72s-22.3-66.72-64.62-66.72ZM826.05,593.28h-16.97v-108.66h16.97c38.89,0,50.71,24.21,50.71,54.33s-14.11,54.33-50.71,54.33Z"/>
          </svg>